<svg id="Capa_1" enable-background="new 0 0 510 510" height="512" viewBox="0 0 510 510" width="512" xmlns="http://www.w3.org/2000/svg"><g id="XMLID_179_"><path id="XMLID_2721_" d="m150 0v75c5.246 3.497 9.754 6.503 15 10 5.246-3.497 9.754-6.503 15-10 0-14.981 0-30.019 0-45h75c3.497-5.013 6.503-9.321 10-14.333-3.497-5.478-6.503-10.189-10-15.667-28.278 0-88.527 0-105 0z" fill="#7ed8f6"/><path id="XMLID_2716_" d="m255 0v30h75v45c5.246 3.497 9.754 6.503 15 10 5.246-3.497 9.754-6.503 15-10 0-20.194 0-63.236 0-75-28.278 0-88.527 0-105 0z" fill="#6aa9ff"/><path id="XMLID_174_" d="m255 195c2.71-18.292 8.403-56.725 10-67.5-3.182-16.703-6.818-35.797-10-52.5-7.193 0-247.807 0-255 0v120l127.5 10z" fill="#fff5f5"/><path id="XMLID_175_" d="m510 195c0-14.518 0-105.387 0-120-7.193 0-247.807 0-255 0v120l127.5 10z" fill="#ece6f2"/><path id="XMLID_195_" d="m450 510c-10.492 0-19.508 0-30 0 0-10.492 0-19.508 0-30 5.246-3.497 9.754-6.503 15-10 5.246 3.497 9.754 6.503 15 10z" fill="#6aa9ff"/><path id="XMLID_196_" d="m90 510c-10.492 0-19.508 0-30 0 0-10.492 0-19.508 0-30 5.246-3.497 9.754-6.503 15-10 5.246 3.497 9.754 6.503 15 10z" fill="#7ed8f6"/><path id="XMLID_176_" d="m0 195v133.539 121.461l127.5 10 127.5-10 10-120.333-10-134.667c-7.193 0-247.807 0-255 0z" fill="#ece6f2"/><path id="XMLID_177_" d="m255 195v255l127.5 10 127.5-10c0-8.875 0-237.371 0-255-7.193 0-247.807 0-255 0z" fill="#cfcfe6"/><path id="XMLID_190_" d="m435 247c-20.194 0-63.236 0-75 0 0-28.278 0-88.527 0-105h75z" fill="#b9bed9"/><path id="XMLID_187_" d="m150 247c-20.194 0-63.236 0-75 0 0-28.278 0-88.527 0-105h75z" fill="#cfcfe6"/><path id="XMLID_3019_" d="m225 270v37.5c-13.115 0-24.385 0-37.5 0v60h37.5v37.5h30l10-67.5-10-67.5c-10.492 0-19.508 0-30 0z" fill="#ff8066"/><path id="XMLID_2532_" d="m285 307.5c0-13.115 0-24.385 0-37.5-10.492 0-19.508 0-30 0v135h30c0-13.115 0-24.385 0-37.5h37.5c0-7.259 0-52.693 0-60-13.115 0-24.385 0-37.5 0z" fill="#ff4d4d"/><path id="XMLID_943_" d="m0 450v30h255l10-15-10-15c-7.193 0-247.807 0-255 0z" fill="#cfcfe6"/><path id="XMLID_178_" d="m255 450v30h255c0-8.708 0-21.345 0-30-7.193 0-247.807 0-255 0z" fill="#b9bed9"/></g></svg>