<svg id="Layer_1" height="512" viewBox="0 0 256 256" width="512" xmlns="http://www.w3.org/2000/svg"><g><path d="m74.836 109.032v116.824c0 7.681 6.227 13.908 13.908 13.908h136.684c7.681 0 13.908-6.227 13.908-13.908v-181.433c0-7.681-6.227-13.908-13.908-13.908h-136.683c-7.681 0-13.908 6.227-13.908 13.908v50.569 14.04z" fill="#87796f"/><path d="m225.428 241.264h-136.683c-8.496 0-15.408-6.912-15.408-15.408v-116.824c0-.829.671-1.5 1.5-1.5s1.5.671 1.5 1.5v116.824c0 6.842 5.566 12.408 12.408 12.408h136.684c6.842 0 12.408-5.566 12.408-12.408v-181.434c0-6.842-5.566-12.408-12.408-12.408h-136.684c-6.842 0-12.408 5.566-12.408 12.408v50.569c0 .829-.671 1.5-1.5 1.5s-1.5-.671-1.5-1.5v-50.569c0-8.496 6.912-15.408 15.408-15.408h136.684c8.496 0 15.408 6.912 15.408 15.408v181.434c-.001 8.496-6.913 15.408-15.409 15.408z" fill="#3a312a"/><path d="m168.003 227.47h50.564c3.904 0 7.068-3.164 7.068-7.068v-169.07c0-3.903-3.164-7.068-7.068-7.068h-122.961c-3.904 0-7.068 3.164-7.068 7.068v169.07c0 3.904 3.164 7.068 7.068 7.068h59.694z" fill="#f3dec3"/><path d="m218.567 228.97h-50.563c-.829 0-1.5-.671-1.5-1.5s.671-1.5 1.5-1.5h50.563c3.07 0 5.568-2.497 5.568-5.568v-169.069c0-3.07-2.498-5.568-5.568-5.568h-122.961c-3.07 0-5.568 2.498-5.568 5.568v169.07c0 3.07 2.497 5.568 5.568 5.568h59.694c.829 0 1.5.671 1.5 1.5s-.671 1.5-1.5 1.5h-59.694c-4.724 0-8.568-3.844-8.568-8.568v-169.07c0-4.724 3.844-8.568 8.568-8.568h122.961c4.724 0 8.568 3.844 8.568 8.568v169.07c0 4.723-3.844 8.567-8.568 8.567z" fill="#3a312a"/><path d="m166.501 48.509h24.375c2.325 0 4.21-1.885 4.21-4.21v-13.814c0-2.325-1.885-4.21-4.21-4.21h-10.179c-1.226 0-2.402-.545-3.145-1.52-3.814-5.004-11.544-8.428-20.465-8.428s-16.652 3.424-20.465 8.428c-.743.975-1.919 1.52-3.145 1.52h-10.179c-2.325 0-4.21 1.885-4.21 4.21v13.813c0 2.325 1.885 4.21 4.21 4.21h25.477 17.726z" fill="#8bbfd6"/><path d="m190.876 50.009h-24.375c-.829 0-1.5-.671-1.5-1.5s.671-1.5 1.5-1.5h24.375c1.495 0 2.71-1.216 2.71-2.71v-13.814c0-1.495-1.216-2.71-2.71-2.71h-10.179c-1.709 0-3.331-.789-4.338-2.111-3.685-4.835-11.069-7.837-19.273-7.837-8.203 0-15.588 3.003-19.272 7.837-1.007 1.322-2.629 2.111-4.338 2.111h-10.179c-1.495 0-2.71 1.216-2.71 2.71v13.813c0 1.494 1.216 2.71 2.71 2.71h25.477c.829 0 1.5.671 1.5 1.5s-.671 1.5-1.5 1.5h-25.477c-3.149 0-5.71-2.562-5.71-5.71v-13.813c0-3.149 2.562-5.71 5.71-5.71h10.179c.779 0 1.509-.347 1.953-.929 4.24-5.563 12.539-9.019 21.658-9.019s17.419 3.456 21.658 9.019c.444.582 1.173.929 1.952.929h10.179c3.149 0 5.71 2.561 5.71 5.71v13.813c0 3.149-2.561 5.711-5.71 5.711z" fill="#3a312a"/><path d="m218.571 45.766h-16c3.07 0 5.56 2.5 5.56 5.57v169.07c0 3.07-2.49 5.56-5.56 5.56h16c3.07 0 5.56-2.49 5.56-5.56v-169.07c0-3.07-2.49-5.57-5.56-5.57z" fill="#ddc9ac"/><g fill="#3a312a"><path d="m205.495 140.701h-96.817c-.829 0-1.5-.671-1.5-1.5s.671-1.5 1.5-1.5h96.817c.829 0 1.5.671 1.5 1.5s-.671 1.5-1.5 1.5z"/><path d="m205.495 172.035h-96.817c-.829 0-1.5-.671-1.5-1.5s.671-1.5 1.5-1.5h96.817c.829 0 1.5.671 1.5 1.5s-.671 1.5-1.5 1.5z"/><path d="m205.495 203.369h-96.817c-.829 0-1.5-.671-1.5-1.5s.671-1.5 1.5-1.5h96.817c.829 0 1.5.671 1.5 1.5 0 .828-.671 1.5-1.5 1.5z"/></g><path clip-rule="evenodd" d="m178.589 61.239c-6.789-2.339-17.081-.086-21.491 6.14-.003.002-.024-.004-.031-.009-4.414-6.219-14.698-8.469-21.484-6.13-8.642 2.978-13.248 12.091-12.397 20.904 1.331 13.784 14.706 27.501 24.903 35.201 2.327 1.757 5.792 4.732 8.929 4.798h.135c3.137-.066 6.602-3.041 8.929-4.798 10.197-7.7 23.572-21.417 24.903-35.201.852-8.814-3.754-17.927-12.396-20.905z" fill="#ed6e7a" fill-rule="evenodd"/><path d="m157.086 123.643c-.033 0-.067-.001-.1-.002v.001c-3.276-.069-6.575-2.615-8.983-4.474-.286-.22-.559-.431-.818-.627-5.564-4.202-23.849-19.234-25.492-36.254-.981-10.171 4.529-19.41 13.401-22.466 6.632-2.286 16.581-.657 21.991 5.197 5.409-5.854 15.355-7.485 21.992-5.197 8.872 3.057 14.383 12.295 13.401 22.466-1.644 17.02-19.928 32.052-25.493 36.254-.259.196-.533.407-.819.628-2.408 1.858-5.706 4.403-8.981 4.472v-.001c-.032.002-.065.003-.099.003zm.059-1.5h.01zm-15.812-60.288c-1.896 0-3.703.266-5.26.802-7.436 2.562-12.227 10.697-11.393 19.342 1.212 12.557 13.355 25.873 24.314 34.148.267.202.549.419.843.646 2.079 1.604 4.925 3.801 7.214 3.85.025.001.048.001.072 0 2.288-.049 5.134-2.245 7.212-3.848.295-.228.577-.445.845-.647 10.959-8.275 23.102-21.591 24.314-34.148.834-8.646-3.957-16.78-11.393-19.342-6.003-2.068-15.737-.118-19.779 5.589-.097.137-.216.256-.352.354-.541.387-1.305.361-1.829-.05-.113-.089-.213-.194-.296-.312-2.996-4.221-9.107-6.384-14.512-6.384z" fill="#3a312a"/><path d="m172.831 85.462h-10.346v-10.347h-10.797v10.347h-10.346v10.796h10.346v10.347h10.797v-10.347h10.346z" fill="#f3dec3"/><path d="m162.484 108.104h-10.796c-.829 0-1.5-.671-1.5-1.5v-8.846h-8.846c-.829 0-1.5-.671-1.5-1.5v-10.796c0-.829.671-1.5 1.5-1.5h8.846v-8.847c0-.829.671-1.5 1.5-1.5h10.796c.829 0 1.5.671 1.5 1.5v8.847h8.847c.829 0 1.5.671 1.5 1.5v10.796c0 .829-.671 1.5-1.5 1.5h-8.847v8.846c0 .829-.671 1.5-1.5 1.5zm-9.296-3h7.796v-8.846c0-.829.671-1.5 1.5-1.5h8.847v-7.796h-8.847c-.829 0-1.5-.671-1.5-1.5v-8.847h-7.796v8.847c0 .829-.671 1.5-1.5 1.5h-8.846v7.796h8.846c.829 0 1.5.671 1.5 1.5z" fill="#3a312a"/><path d="m47.562 25.913s3.41 12.659 13.229 13.246c0 0-13.107 4.525-13.328 14.202 0 0-2.58-13.572-12.932-14.059 0 0 12.057-1.826 13.031-13.389z" fill="#d6df58"/><path d="m47.461 54.86c-.713 0-1.335-.506-1.472-1.217-.024-.124-2.496-12.417-11.529-12.842-.771-.037-1.388-.651-1.428-1.421-.04-.771.511-1.445 1.273-1.561.441-.069 10.901-1.817 11.761-12.033.061-.725.634-1.301 1.359-1.367.723-.07 1.393.398 1.583 1.101.032.116 3.26 11.626 11.87 12.141.714.043 1.298.584 1.396 1.293.098.708-.319 1.388-.995 1.623-.121.042-12.125 4.31-12.319 12.819-.018.767-.61 1.396-1.375 1.459-.04.004-.082.005-.124.005zm-7.745-15.729c3.88 1.97 6.234 5.747 7.591 8.878 2.027-4.021 5.945-6.788 8.954-8.428-4.137-1.843-6.787-5.652-8.338-8.724-1.794 4.36-5.275 6.87-8.207 8.274z" fill="#3a312a"/><path d="m25.852 42.893s2.412 8.954 9.357 9.37c0 0-9.271 3.201-9.427 10.045 0 0-1.825-9.6-9.147-9.944 0 0 8.528-1.292 9.217-9.471z" fill="#d6df58"/><path d="m25.78 63.808c-.713 0-1.337-.507-1.472-1.22-.016-.082-1.705-8.442-7.744-8.726-.771-.037-1.388-.651-1.428-1.421-.039-.771.511-1.445 1.274-1.56.296-.047 7.368-1.243 7.947-8.114.061-.726.635-1.303 1.36-1.368.733-.061 1.392.399 1.582 1.102.021.079 2.229 7.919 7.999 8.265.715.043 1.299.585 1.396 1.294.098.709-.32 1.388-.997 1.622-.081.028-8.287 2.953-8.417 8.662-.017.767-.611 1.397-1.376 1.461-.04.002-.082.003-.124.003zm-4.521-11.528c2.108 1.333 3.525 3.395 4.45 5.281 1.376-2.233 3.517-3.873 5.368-4.974-2.289-1.269-3.887-3.351-4.945-5.225-1.174 2.288-3.016 3.877-4.873 4.918z" fill="#3a312a"/><path d="m25.852 16.236s2.412 8.954 9.357 9.37c0 0-9.271 3.201-9.427 10.045 0 0-1.825-9.6-9.147-9.944 0-.001 8.528-1.292 9.217-9.471z" fill="#d6df58"/><path d="m25.781 37.15c-.714 0-1.337-.507-1.473-1.22-.016-.082-1.705-8.442-7.744-8.726-.771-.037-1.388-.651-1.428-1.421-.039-.771.511-1.445 1.274-1.561.296-.047 7.368-1.244 7.947-8.114.061-.726.635-1.303 1.36-1.368.728-.059 1.392.4 1.583 1.102.038.136 2.25 7.92 7.998 8.263.715.043 1.299.584 1.396 1.293.098.709-.32 1.388-.997 1.622-.081.028-8.287 2.953-8.417 8.662-.017.767-.611 1.397-1.376 1.461-.04.006-.082.007-.123.007zm-4.522-11.527c2.109 1.333 3.525 3.395 4.45 5.281 1.376-2.233 3.517-3.873 5.368-4.974-2.289-1.27-3.887-3.351-4.945-5.225-1.174 2.287-3.016 3.876-4.873 4.918z" fill="#3a312a"/><path clip-rule="evenodd" d="m113.765 109.317c-11.882-4.094-29.893-.151-37.61 10.745-.006.004-.042-.007-.053-.017-7.724-10.883-25.722-14.82-37.597-10.728-15.124 5.211-23.184 21.159-21.695 36.583 2.329 24.122 25.735 48.127 43.58 61.601 4.072 3.076 10.137 8.281 15.626 8.397.004.001.233.001.237 0 5.489-.116 11.553-5.321 15.626-8.397 17.845-13.474 41.252-37.48 43.58-61.601 1.49-15.424-6.57-31.371-21.694-36.583z" fill="#ed6e7a" fill-rule="evenodd"/><path d="m76.135 217.399c-.051 0-.103-.001-.15-.002v.001c-5.363-.113-10.965-4.437-15.057-7.594-.503-.389-.985-.76-1.441-1.105-6.112-4.615-17.862-14.27-27.887-27.081-9.726-12.429-15.204-24.398-16.283-35.574-1.668-17.28 7.667-32.965 22.699-38.145 11.364-3.915 29.264-.786 38.118 9.74 8.854-10.527 26.753-13.658 38.12-9.74 15.033 5.18 24.368 20.865 22.699 38.145-1.079 11.176-6.557 23.145-16.283 35.574-10.024 12.811-21.774 22.466-27.886 27.081-.457.345-.939.717-1.443 1.106-4.091 3.157-9.693 7.48-15.055 7.593v-.001c-.048.001-.099.002-.151.002zm.111-1.5h.01zm-.204-1.5h.186c4.373-.096 9.521-4.068 13.279-6.969.513-.396 1.003-.774 1.468-1.125 19.369-14.626 40.835-38.212 42.991-60.549 1.51-15.642-7.191-30.37-20.69-35.021-10.902-3.756-28.327-.494-35.897 10.194-.106.15-.239.279-.392.381-.541.361-1.306.315-1.816-.088-.111-.088-.21-.192-.292-.308-7.576-10.674-24.992-13.932-35.885-10.179-13.499 4.651-22.2 19.379-20.69 35.021 2.156 22.337 23.622 45.923 42.991 60.548.465.351.955.729 1.467 1.124 3.759 2.902 8.906 6.875 13.28 6.971z" fill="#3a312a"/><path d="m79.665 200.001c-.015 0-.03 0-.045-.001-.742-.023-1.356-.584-1.445-1.321l-7.431-62.025-12.213 53.7c-.156.684-.763 1.167-1.463 1.167-.005 0-.01 0-.015 0-.706-.007-1.312-.505-1.454-1.196l-7.525-36.395-3.751 8.441c-.241.542-.778.891-1.371.891h-21.798c-.829 0-1.5-.671-1.5-1.5s.671-1.5 1.5-1.5h20.823l5.25-11.814c.264-.595.878-.954 1.531-.882.647.069 1.176.549 1.308 1.188l7.071 34.197 12.603-55.41c.162-.712.819-1.202 1.54-1.165.729.038 1.324.595 1.411 1.32l7.272 60.704 7.867-43.55c.125-.696.72-1.21 1.427-1.232.702-.011 1.333.45 1.504 1.137l5.994 24.074 6.908-23.015c.185-.617.743-1.046 1.386-1.068.627-.02 1.229.37 1.455.973l5.465 14.582h19.136c.829 0 1.5.671 1.5 1.5s-.671 1.5-1.5 1.5h-20.175c-.625 0-1.185-.388-1.405-.974l-4.268-11.388-7.2 23.988c-.194.648-.808 1.101-1.472 1.068-.675-.016-1.257-.481-1.42-1.137l-5.626-22.594-8.4 46.505c-.128.714-.751 1.232-1.474 1.232z" fill="#3a312a"/></g></svg>